HIERARCHY
ROOT joint_Root
{
	OFFSET 0.0 0.0 0.0
	CHANNELS 6 Xposition Yposition Zposition Zrotation Xrotation Yrotation 
	JOINT Hips
	{
		OFFSET 4.5925 91.4895 -427.239
		CHANNELS 6 Xposition Yposition Zposition Zrotation Xrotation Yrotation 
		JOINT Spine
		{
			OFFSET 15.7357 0.0 0.0
			CHANNELS 6 Xposition Yposition Zposition Zrotation Xrotation Yrotation 
			JOINT Chest
			{
				OFFSET 8.98455 -0.406207 0.0
				CHANNELS 6 Xposition Yposition Zposition Zrotation Xrotation Yrotation 
				JOINT Neck
				{
					OFFSET 16.3773 0.0 0.0
					CHANNELS 6 Xposition Yposition Zposition Zrotation Xrotation Yrotation 
					JOINT Head
					{
						OFFSET 6.45672 0.0 0.0
						CHANNELS 6 Xposition Yposition Zposition Zrotation Xrotation Yrotation 
						End Site
						{
							OFFSET 0.0 0.0 0.0
						}
					}
				}
				JOINT Shoulder_L
				{
					OFFSET 12.9942 -0.242716 4.98039
					CHANNELS 6 Xposition Yposition Zposition Zrotation Xrotation Yrotation 
					JOINT UpperArm_L
					{
						OFFSET 5.34809 0.0 0.0
						CHANNELS 6 Xposition Yposition Zposition Zrotation Xrotation Yrotation 
						JOINT LowerArm_L
						{
							OFFSET 24.3286 1.87007e-05 0.0
							CHANNELS 6 Xposition Yposition Zposition Zrotation Xrotation Yrotation 
							JOINT Hand_L
							{
								OFFSET 22.2916 0.0 0.0
								CHANNELS 6 Xposition Yposition Zposition Zrotation Xrotation Yrotation 
								End Site
								{
									OFFSET 0.0 0.0 0.0
								}
							}
						}
					}
				}
				JOINT Shoulder_R
				{
					OFFSET 12.9945 -0.242716 -4.98039
					CHANNELS 6 Xposition Yposition Zposition Zrotation Xrotation Yrotation 
					JOINT UpperArm_R
					{
						OFFSET -5.34813 0.0 0.0
						CHANNELS 6 Xposition Yposition Zposition Zrotation Xrotation Yrotation 
						JOINT LowerArm_R
						{
							OFFSET -24.3289 0.000322201 0.0
							CHANNELS 6 Xposition Yposition Zposition Zrotation Xrotation Yrotation 
							JOINT Hand_R
							{
								OFFSET -22.2915 -0.000108084 0.0
								CHANNELS 6 Xposition Yposition Zposition Zrotation Xrotation Yrotation 
								End Site
								{
									OFFSET 0.0 0.0 0.0
								}
							}
						}
					}
				}
			}
		}
		JOINT UpperLeg_L
		{
			OFFSET -2.19248 -6.46944 0.0
			CHANNELS 6 Xposition Yposition Zposition Zrotation Xrotation Yrotation 
			JOINT LowerLeg_L
			{
				OFFSET 39.0811 0.0 -1.23785e-05
				CHANNELS 6 Xposition Yposition Zposition Zrotation Xrotation Yrotation 
				JOINT Foot_L
				{
					OFFSET 40.9854 0.0 -1.26872e-05
					CHANNELS 6 Xposition Yposition Zposition Zrotation Xrotation Yrotation 
					JOINT Toes_L
					{
						OFFSET 11.7543 0.0 0.0
						CHANNELS 6 Xposition Yposition Zposition Zrotation Xrotation Yrotation 
						End Site
						{
							OFFSET 0.0 0.0 0.0
						}
					}
				}
			}
		}
		JOINT UpperLeg_R
		{
			OFFSET -2.19251 6.46944 0.0
			CHANNELS 6 Xposition Yposition Zposition Zrotation Xrotation Yrotation 
			JOINT LowerLeg_R
			{
				OFFSET -39.0811 -0.00228153 -0.0401928
				CHANNELS 6 Xposition Yposition Zposition Zrotation Xrotation Yrotation 
				JOINT Foot_R
				{
					OFFSET -40.9854 0.0 0.0
					CHANNELS 6 Xposition Yposition Zposition Zrotation Xrotation Yrotation 
					JOINT Toes_R
					{
						OFFSET -11.7543 0.0 0.0
						CHANNELS 6 Xposition Yposition Zposition Zrotation Xrotation Yrotation 
						End Site
						{
							OFFSET 0.0 0.0 0.0
						}
					}
				}
			}
		}
	}
}
MOTION
Frames:	4
Frame Time:	0.0333333
0.000000 0.000000 0.000000 0.000000 0.000000 -0.000000 0.589363 82.013400 -2.171860 88.368000 -5.827100 13.515900 15.735700 0.000005 -0.000001 87.822900 78.284700 -87.997000 8.984550 -0.406207 -0.000000 15.647700 -0.889438 -0.226301 16.377300 -0.000001 -0.000001 -3.850360 -3.119540 1.303080 6.456720 -0.000001 -0.000000 -8.456360 -2.217630 0.660556 12.994200 -0.242716 4.980390 -90.849900 2.474930 -71.041200 5.348090 -0.000007 -0.000001 -78.114900 21.552200 17.835900 24.328600 0.000019 0.000005 5.075690 14.469600 -19.583800 22.291600 -0.000001 0.000005 4.704740 5.298540 0.118484 12.994500 -0.242716 -4.980390 87.739800 9.877600 -77.042900 -5.348130 -0.000001 -0.000004 -67.170200 2.143750 1.261200 -24.328900 0.000322 -0.000009 -0.484833 -21.055100 -1.342220 -22.291500 -0.000108 -0.000004 11.153100 5.204110 2.613300 -2.192480 -6.469440 -0.000000 -173.142000 -13.142500 -13.520400 39.081100 -0.000007 -0.000012 -0.485455 0.245132 63.209500 40.985400 -0.000006 -0.000013 1.554250 3.364600 -85.728700 11.754300 -0.000000 0.000003 -0.000297 -0.002580 -16.673700 -2.192510 6.469440 -0.000001 176.943000 11.342200 165.493000 -39.081100 -0.002282 -0.040193 0.080355 -0.039615 62.827700 -40.985400 0.000008 0.000006 4.361440 3.186680 -84.344000 -11.754300 -0.000006 -0.000006 -0.001081 -0.016550 -17.246200
0.000000 0.000000 0.000000 0.000000 0.000000 -0.000000 0.674313 83.157100 -1.862010 88.259100 -4.908950 13.128300 15.735700 0.000005 -0.000001 87.270300 78.828400 -87.264000 8.984550 -0.406207 -0.000000 14.553500 -1.050520 0.146794 16.377300 -0.000001 -0.000001 -3.708270 -3.087140 1.454360 6.456720 -0.000001 -0.000000 -8.239660 -2.096940 0.780449 12.994200 -0.242716 4.980390 -90.723700 2.044250 -70.500100 5.348090 -0.000007 -0.000001 -75.279000 14.607000 15.428500 24.328600 0.000019 0.000005 5.015340 19.800900 -14.523600 22.291600 -0.000001 0.000005 3.649240 5.228950 1.983220 12.994500 -0.242716 -4.980390 87.965300 8.621090 -76.666000 -5.348130 -0.000001 -0.000004 -65.696700 -6.101520 -0.042911 -24.328900 0.000322 -0.000009 -0.002399 -15.280800 -0.000086 -22.291500 -0.000108 -0.000004 10.460800 5.011350 7.087580 -2.192480 -6.469440 -0.000000 -173.429000 -12.326600 -12.287300 39.081100 -0.000007 -0.000012 -0.459626 0.265086 60.027200 40.985400 -0.000006 -0.000013 1.555950 3.419870 -84.288100 11.754300 -0.000000 0.000003 -0.000279 -0.002446 -16.668900 -2.192510 6.469440 -0.000001 176.777000 12.215300 167.130000 -39.081100 -0.002282 -0.040193 0.075037 -0.042291 59.513100 -40.985400 0.000008 0.000006 4.120580 3.383530 -82.969400 -11.754300 -0.000006 -0.000006 -0.001049 -0.016103 -17.228000
0.000000 0.000000 0.000000 0.000000 0.000000 -0.000000 0.839972 85.128500 -1.521870 88.453500 -4.220140 12.242500 15.735700 0.000005 -0.000001 88.229800 79.917200 -88.086800 8.984550 -0.406207 -0.000000 12.391200 -0.611426 0.352235 16.377300 -0.000001 -0.000001 -2.720800 -3.231150 1.550290 6.456720 -0.000001 -0.000000 -7.136100 -2.275620 0.345126 12.994200 -0.242716 4.980390 -90.116100 0.320289 -70.072700 5.348090 -0.000007 -0.000001 -69.804000 4.655760 11.524100 24.328600 0.000019 0.000005 5.484890 19.405700 -16.118400 22.291600 -0.000001 0.000005 2.101000 5.231550 1.915420 12.994500 -0.242716 -4.980390 88.480000 6.227770 -76.254400 -5.348130 -0.000001 -0.000004 -62.232700 -12.483600 -3.111430 -24.328900 0.000322 -0.000009 -0.001035 -10.796200 -0.000062 -22.291500 -0.000108 -0.000004 7.117350 4.810520 11.128800 -2.192480 -6.469440 -0.000000 -174.101000 -11.939100 -10.140100 39.081100 -0.000007 -0.000012 -0.394109 0.285874 54.045000 40.985400 -0.000006 -0.000013 1.563990 3.581720 -81.463300 11.754300 -0.000000 0.000003 -0.000253 -0.002254 -16.662000 -2.192510 6.469440 -0.000001 176.108000 13.866900 169.522000 -39.081100 -0.002282 -0.040193 0.064050 -0.044739 53.660500 -40.985400 0.000008 0.000006 4.292800 4.729280 -80.171400 -11.754300 -0.000006 -0.000006 -0.001762 -0.025702 -17.618200
0.000000 0.000000 0.000000 0.000000 0.000000 -0.000000 1.013060 87.450900 -1.060320 88.747200 -3.428860 11.546000 15.735700 0.000005 -0.000001 90.406700 81.329200 -90.110100 8.984550 -0.406207 -0.000000 9.574960 0.127039 0.582133 16.377300 -0.000001 -0.000001 0.052069 -3.341880 1.419640 6.456720 -0.000001 -0.000000 -5.343590 -2.617600 -0.451773 12.994200 -0.242716 4.980390 -89.489400 -1.359090 -69.406300 5.348090 -0.000007 -0.000001 -62.444700 -1.726390 3.347350 24.328600 0.000019 0.000005 6.413880 18.636700 -19.380700 22.291600 -0.000001 0.000005 4.958170 5.226010 2.057620 12.994500 -0.242716 -4.980390 88.959800 4.032930 -75.523500 -5.348130 -0.000001 -0.000004 -55.848600 -18.931500 -8.379330 -24.328900 0.000322 -0.000009 -0.001042 -7.954100 -0.000048 -22.291500 -0.000108 -0.000004 3.714790 4.811530 11.098700 -2.192480 -6.469440 -0.000000 -174.830000 -11.458400 -6.681250 39.081100 -0.000007 -0.000012 -0.302094 0.291511 46.022100 40.985400 -0.000006 -0.000013 1.506190 3.832500 -77.718400 11.754300 -0.000000 0.000003 -0.000218 -0.001987 -16.652300 -2.192510 6.469440 -0.000001 175.149000 15.960100 173.139000 -39.081100 -0.002282 -0.040193 0.045548 -0.040882 45.967800 -40.985400 0.000008 0.000006 4.244990 6.662350 -76.321900 -11.754300 -0.000006 -0.000006 -0.002434 -0.034020 -17.956500
